<?xml version="1.0" encoding="UTF-8" standalone="no"?>
<!-- Created with Inkscape (http://www.inkscape.org/) -->

<svg
   xmlns:dc="http://purl.org/dc/elements/1.1/"
   xmlns:cc="http://creativecommons.org/ns#"
   xmlns:rdf="http://www.w3.org/1999/02/22-rdf-syntax-ns#"
   xmlns:svg="http://www.w3.org/2000/svg"
   xmlns="http://www.w3.org/2000/svg"
   xmlns:sodipodi="http://sodipodi.sourceforge.net/DTD/sodipodi-0.dtd"
   xmlns:inkscape="http://www.inkscape.org/namespaces/inkscape"
   width="582.65002"
   height="185.28"
   id="svg2"
   version="1.1"
   inkscape:version="0.48.4 r9939"
   sodipodi:docname="New document 1">
  <defs
     id="defs4" />
  <sodipodi:namedview
     id="base"
     pagecolor="#ffffff"
     bordercolor="#666666"
     borderopacity="1.0"
     inkscape:pageopacity="0.0"
     inkscape:pageshadow="2"
     inkscape:zoom="1.4283557"
     inkscape:cx="274.71258"
     inkscape:cy="115.45168"
     inkscape:document-units="px"
     inkscape:current-layer="layer1"
     showgrid="false"
     inkscape:window-width="1920"
     inkscape:window-height="1002"
     inkscape:window-x="0"
     inkscape:window-y="34"
     inkscape:window-maximized="1" />
  <metadata
     id="metadata7">
    <rdf:RDF>
      <cc:Work
         rdf:about="">
        <dc:format>image/svg+xml</dc:format>
        <dc:type
           rdf:resource="http://purl.org/dc/dcmitype/StillImage" />
        <dc:title></dc:title>
      </cc:Work>
    </rdf:RDF>
  </metadata>
  <g
     inkscape:label="Layer 1"
     inkscape:groupmode="layer"
     id="layer1"
     transform="translate(0,-867.08218)">
    <rect
       style="fill:none;stroke:#000000;stroke-width:3;stroke-linecap:square;stroke-linejoin:round;stroke-miterlimit:4;stroke-opacity:1;stroke-dasharray:none"
       id="rect2985"
       width="278.7504"
       height="172.27722"
       x="6.5"
       y="873.58496" />
    <path
       sodipodi:type="arc"
       style="fill:#ff0000;fill-opacity:1;stroke:none"
       id="path3755"
       sodipodi:cx="181.18813"
       sodipodi:cy="599.39191"
       sodipodi:rx="10.891089"
       sodipodi:ry="11.386139"
       d="m 192.07922,599.39191 c 0,6.28839 -4.87611,11.38614 -10.89109,11.38614 -6.01499,0 -10.89109,-5.09775 -10.89109,-11.38614 0,-6.28839 4.8761,-11.38614 10.89109,-11.38614 6.01498,0 10.89109,5.09775 10.89109,11.38614 z"
       transform="matrix(0.54150197,0,0,0.54150197,-24.33005,561.11933)" />
    <path
       sodipodi:type="arc"
       style="fill:#ff0000;fill-opacity:1;stroke:none"
       id="path3755-1"
       sodipodi:cx="181.18813"
       sodipodi:cy="599.39191"
       sodipodi:rx="10.891089"
       sodipodi:ry="11.386139"
       d="m 192.07922,599.39191 c 0,6.28839 -4.87611,11.38614 -10.89109,11.38614 -6.01499,0 -10.89109,-5.09775 -10.89109,-11.38614 0,-6.28839 4.8761,-11.38614 10.89109,-11.38614 6.01498,0 10.89109,5.09775 10.89109,11.38614 z"
       transform="matrix(0.54150197,0,0,0.54150197,-59.3365,562.9339)" />
    <path
       sodipodi:type="arc"
       style="fill:#ff0000;fill-opacity:1;stroke:none"
       id="path3755-9"
       sodipodi:cx="181.18813"
       sodipodi:cy="599.39191"
       sodipodi:rx="10.891089"
       sodipodi:ry="11.386139"
       d="m 192.07922,599.39191 c 0,6.28839 -4.87611,11.38614 -10.89109,11.38614 -6.01499,0 -10.89109,-5.09775 -10.89109,-11.38614 0,-6.28839 4.8761,-11.38614 10.89109,-11.38614 6.01498,0 10.89109,5.09775 10.89109,11.38614 z"
       transform="matrix(0.54150197,0,0,0.54150197,-19.3365,598.9339)" />
    <path
       sodipodi:type="arc"
       style="fill:#ff0000;fill-opacity:1;stroke:none"
       id="path3755-93"
       sodipodi:cx="181.18813"
       sodipodi:cy="599.39191"
       sodipodi:rx="10.891089"
       sodipodi:ry="11.386139"
       d="m 192.07922,599.39191 c 0,6.28839 -4.87611,11.38614 -10.89109,11.38614 -6.01499,0 -10.89109,-5.09775 -10.89109,-11.38614 0,-6.28839 4.8761,-11.38614 10.89109,-11.38614 6.01498,0 10.89109,5.09775 10.89109,11.38614 z"
       transform="matrix(0.54150197,0,0,0.54150197,-5.3364999,568.9339)" />
    <path
       sodipodi:type="arc"
       style="fill:#ff0000;fill-opacity:1;stroke:none"
       id="path3755-8"
       sodipodi:cx="181.18813"
       sodipodi:cy="599.39191"
       sodipodi:rx="10.891089"
       sodipodi:ry="11.386139"
       d="m 192.07922,599.39191 c 0,6.28839 -4.87611,11.38614 -10.89109,11.38614 -6.01499,0 -10.89109,-5.09775 -10.89109,-11.38614 0,-6.28839 4.8761,-11.38614 10.89109,-11.38614 6.01498,0 10.89109,5.09775 10.89109,11.38614 z"
       transform="matrix(0.54150197,0,0,0.54150197,18.6635,582.9339)" />
    <path
       sodipodi:type="arc"
       style="fill:#ff0000;fill-opacity:1;stroke:none"
       id="path3755-2"
       sodipodi:cx="181.18813"
       sodipodi:cy="599.39191"
       sodipodi:rx="10.891089"
       sodipodi:ry="11.386139"
       d="m 192.07922,599.39191 c 0,6.28839 -4.87611,11.38614 -10.89109,11.38614 -6.01499,0 -10.89109,-5.09775 -10.89109,-11.38614 0,-6.28839 4.8761,-11.38614 10.89109,-11.38614 6.01498,0 10.89109,5.09775 10.89109,11.38614 z"
       transform="matrix(0.54150197,0,0,0.54150197,-45.3365,618.9339)" />
    <path
       sodipodi:type="arc"
       style="fill:#ff0000;fill-opacity:1;stroke:none"
       id="path3755-10"
       sodipodi:cx="181.18813"
       sodipodi:cy="599.39191"
       sodipodi:rx="10.891089"
       sodipodi:ry="11.386139"
       d="m 192.07922,599.39191 c 0,6.28839 -4.87611,11.38614 -10.89109,11.38614 -6.01499,0 -10.89109,-5.09775 -10.89109,-11.38614 0,-6.28839 4.8761,-11.38614 10.89109,-11.38614 6.01498,0 10.89109,5.09775 10.89109,11.38614 z"
       transform="matrix(0.54150197,0,0,0.54150197,-41.3365,584.9339)" />
    <path
       sodipodi:type="arc"
       style="fill:#ff0000;fill-opacity:1;stroke:none"
       id="path3755-4"
       sodipodi:cx="181.18813"
       sodipodi:cy="599.39191"
       sodipodi:rx="10.891089"
       sodipodi:ry="11.386139"
       d="m 192.07922,599.39191 c 0,6.28839 -4.87611,11.38614 -10.89109,11.38614 -6.01499,0 -10.89109,-5.09775 -10.89109,-11.38614 0,-6.28839 4.8761,-11.38614 10.89109,-11.38614 6.01498,0 10.89109,5.09775 10.89109,11.38614 z"
       transform="matrix(0.54150197,0,0,0.54150197,-71.3365,592.9339)" />
    <path
       sodipodi:type="arc"
       style="fill:#ff0000;fill-opacity:1;stroke:none"
       id="path3755-3"
       sodipodi:cx="181.18813"
       sodipodi:cy="599.39191"
       sodipodi:rx="10.891089"
       sodipodi:ry="11.386139"
       d="m 192.07922,599.39191 c 0,6.28839 -4.87611,11.38614 -10.89109,11.38614 -6.01499,0 -10.89109,-5.09775 -10.89109,-11.38614 0,-6.28839 4.8761,-11.38614 10.89109,-11.38614 6.01498,0 10.89109,5.09775 10.89109,11.38614 z"
       transform="matrix(0.54150197,0,0,0.54150197,-65.3365,634.9339)" />
    <path
       sodipodi:type="arc"
       style="fill:#ff0000;fill-opacity:1;stroke:none"
       id="path3755-30"
       sodipodi:cx="181.18813"
       sodipodi:cy="599.39191"
       sodipodi:rx="10.891089"
       sodipodi:ry="11.386139"
       d="m 192.07922,599.39191 c 0,6.28839 -4.87611,11.38614 -10.89109,11.38614 -6.01499,0 -10.89109,-5.09775 -10.89109,-11.38614 0,-6.28839 4.8761,-11.38614 10.89109,-11.38614 6.01498,0 10.89109,5.09775 10.89109,11.38614 z"
       transform="matrix(0.54150197,0,0,0.54150197,2.6635001,678.9339)" />
    <path
       sodipodi:type="arc"
       style="fill:#ff0000;fill-opacity:1;stroke:none"
       id="path3755-88"
       sodipodi:cx="181.18813"
       sodipodi:cy="599.39191"
       sodipodi:rx="10.891089"
       sodipodi:ry="11.386139"
       d="m 192.07922,599.39191 c 0,6.28839 -4.87611,11.38614 -10.89109,11.38614 -6.01499,0 -10.89109,-5.09775 -10.89109,-11.38614 0,-6.28839 4.8761,-11.38614 10.89109,-11.38614 6.01498,0 10.89109,5.09775 10.89109,11.38614 z"
       transform="matrix(0.54150197,0,0,0.54150197,24.6635,608.9339)" />
    <path
       sodipodi:type="arc"
       style="fill:#ff0000;fill-opacity:1;stroke:none"
       id="path3755-23"
       sodipodi:cx="181.18813"
       sodipodi:cy="599.39191"
       sodipodi:rx="10.891089"
       sodipodi:ry="11.386139"
       d="m 192.07922,599.39191 c 0,6.28839 -4.87611,11.38614 -10.89109,11.38614 -6.01499,0 -10.89109,-5.09775 -10.89109,-11.38614 0,-6.28839 4.8761,-11.38614 10.89109,-11.38614 6.01498,0 10.89109,5.09775 10.89109,11.38614 z"
       transform="matrix(0.54150197,0,0,0.54150197,-29.3365,696.9339)" />
    <path
       sodipodi:type="arc"
       style="fill:#ff0000;fill-opacity:1;stroke:none"
       id="path3755-7"
       sodipodi:cx="181.18813"
       sodipodi:cy="599.39191"
       sodipodi:rx="10.891089"
       sodipodi:ry="11.386139"
       d="m 192.07922,599.39191 c 0,6.28839 -4.87611,11.38614 -10.89109,11.38614 -6.01499,0 -10.89109,-5.09775 -10.89109,-11.38614 0,-6.28839 4.8761,-11.38614 10.89109,-11.38614 6.01498,0 10.89109,5.09775 10.89109,11.38614 z"
       transform="matrix(0.54150197,0,0,0.54150197,-55.3365,674.9339)" />
    <path
       sodipodi:type="arc"
       style="fill:#ff0000;fill-opacity:1;stroke:none"
       id="path3755-70"
       sodipodi:cx="181.18813"
       sodipodi:cy="599.39191"
       sodipodi:rx="10.891089"
       sodipodi:ry="11.386139"
       d="m 192.07922,599.39191 c 0,6.28839 -4.87611,11.38614 -10.89109,11.38614 -6.01499,0 -10.89109,-5.09775 -10.89109,-11.38614 0,-6.28839 4.8761,-11.38614 10.89109,-11.38614 6.01498,0 10.89109,5.09775 10.89109,11.38614 z"
       transform="matrix(0.54150197,0,0,0.54150197,-73.3365,652.9339)" />
    <path
       sodipodi:type="arc"
       style="fill:#ff0000;fill-opacity:1;stroke:none"
       id="path3755-709"
       sodipodi:cx="181.18813"
       sodipodi:cy="599.39191"
       sodipodi:rx="10.891089"
       sodipodi:ry="11.386139"
       d="m 192.07922,599.39191 c 0,6.28839 -4.87611,11.38614 -10.89109,11.38614 -6.01499,0 -10.89109,-5.09775 -10.89109,-11.38614 0,-6.28839 4.8761,-11.38614 10.89109,-11.38614 6.01498,0 10.89109,5.09775 10.89109,11.38614 z"
       transform="matrix(0.54150197,0,0,0.54150197,-19.3365,630.9339)" />
    <path
       sodipodi:type="arc"
       style="fill:#ff0000;fill-opacity:1;stroke:none"
       id="path3755-880"
       sodipodi:cx="181.18813"
       sodipodi:cy="599.39191"
       sodipodi:rx="10.891089"
       sodipodi:ry="11.386139"
       d="m 192.07922,599.39191 c 0,6.28839 -4.87611,11.38614 -10.89109,11.38614 -6.01499,0 -10.89109,-5.09775 -10.89109,-11.38614 0,-6.28839 4.8761,-11.38614 10.89109,-11.38614 6.01498,0 10.89109,5.09775 10.89109,11.38614 z"
       transform="matrix(0.54150197,0,0,0.54150197,-31.3365,652.9339)" />
    <path
       sodipodi:type="arc"
       style="fill:#ff0000;fill-opacity:1;stroke:none"
       id="path3755-300"
       sodipodi:cx="181.18813"
       sodipodi:cy="599.39191"
       sodipodi:rx="10.891089"
       sodipodi:ry="11.386139"
       d="m 192.07922,599.39191 c 0,6.28839 -4.87611,11.38614 -10.89109,11.38614 -6.01499,0 -10.89109,-5.09775 -10.89109,-11.38614 0,-6.28839 4.8761,-11.38614 10.89109,-11.38614 6.01498,0 10.89109,5.09775 10.89109,11.38614 z"
       transform="matrix(0.54150197,0,0,0.54150197,-71.3365,690.9339)" />
    <path
       sodipodi:type="arc"
       style="fill:#ff0000;fill-opacity:1;stroke:none"
       id="path3755-0"
       sodipodi:cx="181.18813"
       sodipodi:cy="599.39191"
       sodipodi:rx="10.891089"
       sodipodi:ry="11.386139"
       d="m 192.07922,599.39191 c 0,6.28839 -4.87611,11.38614 -10.89109,11.38614 -6.01499,0 -10.89109,-5.09775 -10.89109,-11.38614 0,-6.28839 4.8761,-11.38614 10.89109,-11.38614 6.01498,0 10.89109,5.09775 10.89109,11.38614 z"
       transform="matrix(0.54150197,0,0,0.54150197,2.6635001,614.9339)" />
    <path
       sodipodi:type="arc"
       style="fill:#ff0000;fill-opacity:1;stroke:none"
       id="path3755-19"
       sodipodi:cx="181.18813"
       sodipodi:cy="599.39191"
       sodipodi:rx="10.891089"
       sodipodi:ry="11.386139"
       d="m 192.07922,599.39191 c 0,6.28839 -4.87611,11.38614 -10.89109,11.38614 -6.01499,0 -10.89109,-5.09775 -10.89109,-11.38614 0,-6.28839 4.8761,-11.38614 10.89109,-11.38614 6.01498,0 10.89109,5.09775 10.89109,11.38614 z"
       transform="matrix(0.54150197,0,0,0.54150197,32.6635,640.9339)" />
    <path
       sodipodi:type="arc"
       style="fill:#ff0000;fill-opacity:1;stroke:none"
       id="path3755-24"
       sodipodi:cx="181.18813"
       sodipodi:cy="599.39191"
       sodipodi:rx="10.891089"
       sodipodi:ry="11.386139"
       d="m 192.07922,599.39191 c 0,6.28839 -4.87611,11.38614 -10.89109,11.38614 -6.01499,0 -10.89109,-5.09775 -10.89109,-11.38614 0,-6.28839 4.8761,-11.38614 10.89109,-11.38614 6.01498,0 10.89109,5.09775 10.89109,11.38614 z"
       transform="matrix(0.54150197,0,0,0.54150197,32.6635,676.9339)" />
    <path
       sodipodi:type="arc"
       style="fill:#0000ff;fill-opacity:1;stroke:none"
       id="path3755-8-9"
       sodipodi:cx="181.18813"
       sodipodi:cy="599.39191"
       sodipodi:rx="10.891089"
       sodipodi:ry="11.386139"
       d="m 192.07922,599.39191 c 0,6.28839 -4.87611,11.38614 -10.89109,11.38614 -6.01499,0 -10.89109,-5.09775 -10.89109,-11.38614 0,-6.28839 4.8761,-11.38614 10.89109,-11.38614 6.01498,0 10.89109,5.09775 10.89109,11.38614 z"
       transform="matrix(0.54150197,0,0,0.54150197,86.60409,605.44876)" />
    <path
       sodipodi:type="arc"
       style="fill:#0000ff;fill-opacity:1;stroke:none"
       id="path3755-8-9-6"
       sodipodi:cx="181.18813"
       sodipodi:cy="599.39191"
       sodipodi:rx="10.891089"
       sodipodi:ry="11.386139"
       d="m 192.07922,599.39191 c 0,6.28839 -4.87611,11.38614 -10.89109,11.38614 -6.01499,0 -10.89109,-5.09775 -10.89109,-11.38614 0,-6.28839 4.8761,-11.38614 10.89109,-11.38614 6.01498,0 10.89109,5.09775 10.89109,11.38614 z"
       transform="matrix(0.54150197,0,0,0.54150197,62.56449,598.47846)" />
    <path
       sodipodi:type="arc"
       style="fill:#0000ff;fill-opacity:1;stroke:none"
       id="path3755-8-9-7"
       sodipodi:cx="181.18813"
       sodipodi:cy="599.39191"
       sodipodi:rx="10.891089"
       sodipodi:ry="11.386139"
       d="m 192.07922,599.39191 c 0,6.28839 -4.87611,11.38614 -10.89109,11.38614 -6.01499,0 -10.89109,-5.09775 -10.89109,-11.38614 0,-6.28839 4.8761,-11.38614 10.89109,-11.38614 6.01498,0 10.89109,5.09775 10.89109,11.38614 z"
       transform="matrix(0.54150197,0,0,0.54150197,90.56449,582.47846)" />
    <path
       sodipodi:type="arc"
       style="fill:#0000ff;fill-opacity:1;stroke:none"
       id="path3755-8-9-1"
       sodipodi:cx="181.18813"
       sodipodi:cy="599.39191"
       sodipodi:rx="10.891089"
       sodipodi:ry="11.386139"
       d="m 192.07922,599.39191 c 0,6.28839 -4.87611,11.38614 -10.89109,11.38614 -6.01499,0 -10.89109,-5.09775 -10.89109,-11.38614 0,-6.28839 4.8761,-11.38614 10.89109,-11.38614 6.01498,0 10.89109,5.09775 10.89109,11.38614 z"
       transform="matrix(0.54150197,0,0,0.54150197,162.56449,602.47846)" />
    <path
       sodipodi:type="arc"
       style="fill:#0000ff;fill-opacity:1;stroke:none"
       id="path3755-8-9-10"
       sodipodi:cx="181.18813"
       sodipodi:cy="599.39191"
       sodipodi:rx="10.891089"
       sodipodi:ry="11.386139"
       d="m 192.07922,599.39191 c 0,6.28839 -4.87611,11.38614 -10.89109,11.38614 -6.01499,0 -10.89109,-5.09775 -10.89109,-11.38614 0,-6.28839 4.8761,-11.38614 10.89109,-11.38614 6.01498,0 10.89109,5.09775 10.89109,11.38614 z"
       transform="matrix(0.54150197,0,0,0.54150197,90.56449,648.47846)" />
    <path
       sodipodi:type="arc"
       style="fill:#0000ff;fill-opacity:1;stroke:none"
       id="path3755-8-9-71"
       sodipodi:cx="181.18813"
       sodipodi:cy="599.39191"
       sodipodi:rx="10.891089"
       sodipodi:ry="11.386139"
       d="m 192.07922,599.39191 c 0,6.28839 -4.87611,11.38614 -10.89109,11.38614 -6.01499,0 -10.89109,-5.09775 -10.89109,-11.38614 0,-6.28839 4.8761,-11.38614 10.89109,-11.38614 6.01498,0 10.89109,5.09775 10.89109,11.38614 z"
       transform="matrix(0.54150197,0,0,0.54150197,70.56449,626.47846)" />
    <path
       sodipodi:type="arc"
       style="fill:#0000ff;fill-opacity:1;stroke:none"
       id="path3755-8-9-0"
       sodipodi:cx="181.18813"
       sodipodi:cy="599.39191"
       sodipodi:rx="10.891089"
       sodipodi:ry="11.386139"
       d="m 192.07922,599.39191 c 0,6.28839 -4.87611,11.38614 -10.89109,11.38614 -6.01499,0 -10.89109,-5.09775 -10.89109,-11.38614 0,-6.28839 4.8761,-11.38614 10.89109,-11.38614 6.01498,0 10.89109,5.09775 10.89109,11.38614 z"
       transform="matrix(0.54150197,0,0,0.54150197,66.56449,692.47846)" />
    <path
       sodipodi:type="arc"
       style="fill:#0000ff;fill-opacity:1;stroke:none"
       id="path3755-8-9-5"
       sodipodi:cx="181.18813"
       sodipodi:cy="599.39191"
       sodipodi:rx="10.891089"
       sodipodi:ry="11.386139"
       d="m 192.07922,599.39191 c 0,6.28839 -4.87611,11.38614 -10.89109,11.38614 -6.01499,0 -10.89109,-5.09775 -10.89109,-11.38614 0,-6.28839 4.8761,-11.38614 10.89109,-11.38614 6.01498,0 10.89109,5.09775 10.89109,11.38614 z"
       transform="matrix(0.54150197,0,0,0.54150197,104.56449,680.47846)" />
    <path
       sodipodi:type="arc"
       style="fill:#0000ff;fill-opacity:1;stroke:none"
       id="path3755-8-9-08"
       sodipodi:cx="181.18813"
       sodipodi:cy="599.39191"
       sodipodi:rx="10.891089"
       sodipodi:ry="11.386139"
       d="m 192.07922,599.39191 c 0,6.28839 -4.87611,11.38614 -10.89109,11.38614 -6.01499,0 -10.89109,-5.09775 -10.89109,-11.38614 0,-6.28839 4.8761,-11.38614 10.89109,-11.38614 6.01498,0 10.89109,5.09775 10.89109,11.38614 z"
       transform="matrix(0.54150197,0,0,0.54150197,160.56449,576.47846)" />
    <path
       sodipodi:type="arc"
       style="fill:#0000ff;fill-opacity:1;stroke:none"
       id="path3755-8-9-9"
       sodipodi:cx="181.18813"
       sodipodi:cy="599.39191"
       sodipodi:rx="10.891089"
       sodipodi:ry="11.386139"
       d="m 192.07922,599.39191 c 0,6.28839 -4.87611,11.38614 -10.89109,11.38614 -6.01499,0 -10.89109,-5.09775 -10.89109,-11.38614 0,-6.28839 4.8761,-11.38614 10.89109,-11.38614 6.01498,0 10.89109,5.09775 10.89109,11.38614 z"
       transform="matrix(0.54150197,0,0,0.54150197,132.56449,604.47846)" />
    <path
       sodipodi:type="arc"
       style="fill:#0000ff;fill-opacity:1;stroke:none"
       id="path3755-8-9-55"
       sodipodi:cx="181.18813"
       sodipodi:cy="599.39191"
       sodipodi:rx="10.891089"
       sodipodi:ry="11.386139"
       d="m 192.07922,599.39191 c 0,6.28839 -4.87611,11.38614 -10.89109,11.38614 -6.01499,0 -10.89109,-5.09775 -10.89109,-11.38614 0,-6.28839 4.8761,-11.38614 10.89109,-11.38614 6.01498,0 10.89109,5.09775 10.89109,11.38614 z"
       transform="matrix(0.54150197,0,0,0.54150197,120.56449,580.47846)" />
    <path
       sodipodi:type="arc"
       style="fill:#0000ff;fill-opacity:1;stroke:none"
       id="path3755-8-9-95"
       sodipodi:cx="181.18813"
       sodipodi:cy="599.39191"
       sodipodi:rx="10.891089"
       sodipodi:ry="11.386139"
       d="m 192.07922,599.39191 c 0,6.28839 -4.87611,11.38614 -10.89109,11.38614 -6.01499,0 -10.89109,-5.09775 -10.89109,-11.38614 0,-6.28839 4.8761,-11.38614 10.89109,-11.38614 6.01498,0 10.89109,5.09775 10.89109,11.38614 z"
       transform="matrix(0.54150197,0,0,0.54150197,68.56449,576.47846)" />
    <path
       sodipodi:type="arc"
       style="fill:#0000ff;fill-opacity:1;stroke:none"
       id="path3755-8-9-3"
       sodipodi:cx="181.18813"
       sodipodi:cy="599.39191"
       sodipodi:rx="10.891089"
       sodipodi:ry="11.386139"
       d="m 192.07922,599.39191 c 0,6.28839 -4.87611,11.38614 -10.89109,11.38614 -6.01499,0 -10.89109,-5.09775 -10.89109,-11.38614 0,-6.28839 4.8761,-11.38614 10.89109,-11.38614 6.01498,0 10.89109,5.09775 10.89109,11.38614 z"
       transform="matrix(0.54150197,0,0,0.54150197,90.56449,698.47846)" />
    <path
       sodipodi:type="arc"
       style="fill:#0000ff;fill-opacity:1;stroke:none"
       id="path3755-8-9-16"
       sodipodi:cx="181.18813"
       sodipodi:cy="599.39191"
       sodipodi:rx="10.891089"
       sodipodi:ry="11.386139"
       d="m 192.07922,599.39191 c 0,6.28839 -4.87611,11.38614 -10.89109,11.38614 -6.01499,0 -10.89109,-5.09775 -10.89109,-11.38614 0,-6.28839 4.8761,-11.38614 10.89109,-11.38614 6.01498,0 10.89109,5.09775 10.89109,11.38614 z"
       transform="matrix(0.54150197,0,0,0.54150197,150.56449,624.47846)" />
    <path
       sodipodi:type="arc"
       style="fill:#0000ff;fill-opacity:1;stroke:none"
       id="path3755-8-9-31"
       sodipodi:cx="181.18813"
       sodipodi:cy="599.39191"
       sodipodi:rx="10.891089"
       sodipodi:ry="11.386139"
       d="m 192.07922,599.39191 c 0,6.28839 -4.87611,11.38614 -10.89109,11.38614 -6.01499,0 -10.89109,-5.09775 -10.89109,-11.38614 0,-6.28839 4.8761,-11.38614 10.89109,-11.38614 6.01498,0 10.89109,5.09775 10.89109,11.38614 z"
       transform="matrix(0.54150197,0,0,0.54150197,66.56449,660.47846)" />
    <path
       sodipodi:type="arc"
       style="fill:#0000ff;fill-opacity:1;stroke:none"
       id="path3755-8-9-97"
       sodipodi:cx="181.18813"
       sodipodi:cy="599.39191"
       sodipodi:rx="10.891089"
       sodipodi:ry="11.386139"
       d="m 192.07922,599.39191 c 0,6.28839 -4.87611,11.38614 -10.89109,11.38614 -6.01499,0 -10.89109,-5.09775 -10.89109,-11.38614 0,-6.28839 4.8761,-11.38614 10.89109,-11.38614 6.01498,0 10.89109,5.09775 10.89109,11.38614 z"
       transform="matrix(0.54150197,0,0,0.54150197,110.56449,624.47846)" />
    <path
       sodipodi:type="arc"
       style="fill:#0000ff;fill-opacity:1;stroke:none"
       id="path3755-8-9-19"
       sodipodi:cx="181.18813"
       sodipodi:cy="599.39191"
       sodipodi:rx="10.891089"
       sodipodi:ry="11.386139"
       d="m 192.07922,599.39191 c 0,6.28839 -4.87611,11.38614 -10.89109,11.38614 -6.01499,0 -10.89109,-5.09775 -10.89109,-11.38614 0,-6.28839 4.8761,-11.38614 10.89109,-11.38614 6.01498,0 10.89109,5.09775 10.89109,11.38614 z"
       transform="matrix(0.54150197,0,0,0.54150197,124.56449,646.47846)" />
    <path
       sodipodi:type="arc"
       style="fill:#0000ff;fill-opacity:1;stroke:none"
       id="path3755-8-9-72"
       sodipodi:cx="181.18813"
       sodipodi:cy="599.39191"
       sodipodi:rx="10.891089"
       sodipodi:ry="11.386139"
       d="m 192.07922,599.39191 c 0,6.28839 -4.87611,11.38614 -10.89109,11.38614 -6.01499,0 -10.89109,-5.09775 -10.89109,-11.38614 0,-6.28839 4.8761,-11.38614 10.89109,-11.38614 6.01498,0 10.89109,5.09775 10.89109,11.38614 z"
       transform="matrix(0.54150197,0,0,0.54150197,150.56449,651.32994)" />
    <path
       sodipodi:type="arc"
       style="fill:#0000ff;fill-opacity:1;stroke:none"
       id="path3755-8-9-01"
       sodipodi:cx="181.18813"
       sodipodi:cy="599.39191"
       sodipodi:rx="10.891089"
       sodipodi:ry="11.386139"
       d="m 192.07922,599.39191 c 0,6.28839 -4.87611,11.38614 -10.89109,11.38614 -6.01499,0 -10.89109,-5.09775 -10.89109,-11.38614 0,-6.28839 4.8761,-11.38614 10.89109,-11.38614 6.01498,0 10.89109,5.09775 10.89109,11.38614 z"
       transform="matrix(0.54150197,0,0,0.54150197,158.56449,683.32994)" />
    <path
       sodipodi:type="arc"
       style="fill:#0000ff;fill-opacity:1;stroke:none"
       id="path3755-8-9-8"
       sodipodi:cx="181.18813"
       sodipodi:cy="599.39191"
       sodipodi:rx="10.891089"
       sodipodi:ry="11.386139"
       d="m 192.07922,599.39191 c 0,6.28839 -4.87611,11.38614 -10.89109,11.38614 -6.01499,0 -10.89109,-5.09775 -10.89109,-11.38614 0,-6.28839 4.8761,-11.38614 10.89109,-11.38614 6.01498,0 10.89109,5.09775 10.89109,11.38614 z"
       transform="matrix(0.54150197,0,0,0.54150197,132.56449,669.32994)" />
    <path
       sodipodi:type="arc"
       style="fill:#0000ff;fill-opacity:1;stroke:none"
       id="path3755-8-9-8-0"
       sodipodi:cx="181.18813"
       sodipodi:cy="599.39191"
       sodipodi:rx="10.891089"
       sodipodi:ry="11.386139"
       d="m 192.07922,599.39191 c 0,6.28839 -4.87611,11.38614 -10.89109,11.38614 -6.01499,0 -10.89109,-5.09775 -10.89109,-11.38614 0,-6.28839 4.8761,-11.38614 10.89109,-11.38614 6.01498,0 10.89109,5.09775 10.89109,11.38614 z"
       transform="matrix(0.54150197,0,0,0.54150197,130.56449,689.32994)" />
    <rect
       style="fill:none;stroke:#000000;stroke-width:3;stroke-linecap:square;stroke-linejoin:round;stroke-miterlimit:4;stroke-opacity:1;stroke-dasharray:none"
       id="rect2985-8"
       width="278.7504"
       height="172.27722"
       x="297.39468"
       y="873.58496" />
    <path
       sodipodi:type="arc"
       style="fill:#ff0000;fill-opacity:1;stroke:none"
       id="path3755-6"
       sodipodi:cx="181.18813"
       sodipodi:cy="599.39191"
       sodipodi:rx="10.891089"
       sodipodi:ry="11.386139"
       d="m 192.07922,599.39191 c 0,6.28839 -4.87611,11.38614 -10.89109,11.38614 -6.01499,0 -10.89109,-5.09775 -10.89109,-11.38614 0,-6.28839 4.8761,-11.38614 10.89109,-11.38614 6.01498,0 10.89109,5.09775 10.89109,11.38614 z"
       transform="matrix(0.54150197,0,0,0.54150197,266.56463,561.11918)" />
    <path
       sodipodi:type="arc"
       style="fill:#ff0000;fill-opacity:1;stroke:none"
       id="path3755-1-3"
       sodipodi:cx="181.18813"
       sodipodi:cy="599.39191"
       sodipodi:rx="10.891089"
       sodipodi:ry="11.386139"
       d="m 192.07922,599.39191 c 0,6.28839 -4.87611,11.38614 -10.89109,11.38614 -6.01499,0 -10.89109,-5.09775 -10.89109,-11.38614 0,-6.28839 4.8761,-11.38614 10.89109,-11.38614 6.01498,0 10.89109,5.09775 10.89109,11.38614 z"
       transform="matrix(0.54150197,0,0,0.54150197,248.38986,578.77533)" />
    <path
       sodipodi:type="arc"
       style="fill:#ff0000;fill-opacity:1;stroke:none"
       id="path3755-9-9"
       sodipodi:cx="181.18813"
       sodipodi:cy="599.39191"
       sodipodi:rx="10.891089"
       sodipodi:ry="11.386139"
       d="m 192.07922,599.39191 c 0,6.28839 -4.87611,11.38614 -10.89109,11.38614 -6.01499,0 -10.89109,-5.09775 -10.89109,-11.38614 0,-6.28839 4.8761,-11.38614 10.89109,-11.38614 6.01498,0 10.89109,5.09775 10.89109,11.38614 z"
       transform="matrix(0.54150197,0,0,0.54150197,271.55818,598.93375)" />
    <path
       sodipodi:type="arc"
       style="fill:#ff0000;fill-opacity:1;stroke:none"
       id="path3755-93-8"
       sodipodi:cx="181.18813"
       sodipodi:cy="599.39191"
       sodipodi:rx="10.891089"
       sodipodi:ry="11.386139"
       d="m 192.07922,599.39191 c 0,6.28839 -4.87611,11.38614 -10.89109,11.38614 -6.01499,0 -10.89109,-5.09775 -10.89109,-11.38614 0,-6.28839 4.8761,-11.38614 10.89109,-11.38614 6.01498,0 10.89109,5.09775 10.89109,11.38614 z"
       transform="matrix(0.54150197,0,0,0.54150197,285.55818,568.93375)" />
    <path
       sodipodi:type="arc"
       style="fill:#ff0000;fill-opacity:1;stroke:none"
       id="path3755-8-0"
       sodipodi:cx="181.18813"
       sodipodi:cy="599.39191"
       sodipodi:rx="10.891089"
       sodipodi:ry="11.386139"
       d="m 192.07922,599.39191 c 0,6.28839 -4.87611,11.38614 -10.89109,11.38614 -6.01499,0 -10.89109,-5.09775 -10.89109,-11.38614 0,-6.28839 4.8761,-11.38614 10.89109,-11.38614 6.01498,0 10.89109,5.09775 10.89109,11.38614 z"
       transform="matrix(0.54150197,0,0,0.54150197,309.55818,582.93375)" />
    <path
       sodipodi:type="arc"
       style="fill:#ff0000;fill-opacity:1;stroke:none"
       id="path3755-2-0"
       sodipodi:cx="181.18813"
       sodipodi:cy="599.39191"
       sodipodi:rx="10.891089"
       sodipodi:ry="11.386139"
       d="m 192.07922,599.39191 c 0,6.28839 -4.87611,11.38614 -10.89109,11.38614 -6.01499,0 -10.89109,-5.09775 -10.89109,-11.38614 0,-6.28839 4.8761,-11.38614 10.89109,-11.38614 6.01498,0 10.89109,5.09775 10.89109,11.38614 z"
       transform="matrix(0.54150197,0,0,0.54150197,245.55818,618.93375)" />
    <path
       sodipodi:type="arc"
       style="fill:#ff0000;fill-opacity:1;stroke:none"
       id="path3755-10-1"
       sodipodi:cx="181.18813"
       sodipodi:cy="599.39191"
       sodipodi:rx="10.891089"
       sodipodi:ry="11.386139"
       d="m 192.07922,599.39191 c 0,6.28839 -4.87611,11.38614 -10.89109,11.38614 -6.01499,0 -10.89109,-5.09775 -10.89109,-11.38614 0,-6.28839 4.8761,-11.38614 10.89109,-11.38614 6.01498,0 10.89109,5.09775 10.89109,11.38614 z"
       transform="matrix(0.54150197,0,0,0.54150197,383.22155,643.34959)" />
    <path
       sodipodi:type="arc"
       style="fill:#ff0000;fill-opacity:1;stroke:none"
       id="path3755-4-8"
       sodipodi:cx="181.18813"
       sodipodi:cy="599.39191"
       sodipodi:rx="10.891089"
       sodipodi:ry="11.386139"
       d="m 192.07922,599.39191 c 0,6.28839 -4.87611,11.38614 -10.89109,11.38614 -6.01499,0 -10.89109,-5.09775 -10.89109,-11.38614 0,-6.28839 4.8761,-11.38614 10.89109,-11.38614 6.01498,0 10.89109,5.09775 10.89109,11.38614 z"
       transform="matrix(0.54150197,0,0,0.54150197,217.55818,592.93375)" />
    <path
       sodipodi:type="arc"
       style="fill:#ff0000;fill-opacity:1;stroke:none"
       id="path3755-3-2"
       sodipodi:cx="181.18813"
       sodipodi:cy="599.39191"
       sodipodi:rx="10.891089"
       sodipodi:ry="11.386139"
       d="m 192.07922,599.39191 c 0,6.28839 -4.87611,11.38614 -10.89109,11.38614 -6.01499,0 -10.89109,-5.09775 -10.89109,-11.38614 0,-6.28839 4.8761,-11.38614 10.89109,-11.38614 6.01498,0 10.89109,5.09775 10.89109,11.38614 z"
       transform="matrix(0.54150197,0,0,0.54150197,225.55818,634.93375)" />
    <path
       sodipodi:type="arc"
       style="fill:#ff0000;fill-opacity:1;stroke:none"
       id="path3755-30-9"
       sodipodi:cx="181.18813"
       sodipodi:cy="599.39191"
       sodipodi:rx="10.891089"
       sodipodi:ry="11.386139"
       d="m 192.07922,599.39191 c 0,6.28839 -4.87611,11.38614 -10.89109,11.38614 -6.01499,0 -10.89109,-5.09775 -10.89109,-11.38614 0,-6.28839 4.8761,-11.38614 10.89109,-11.38614 6.01498,0 10.89109,5.09775 10.89109,11.38614 z"
       transform="matrix(0.54150197,0,0,0.54150197,399.49877,609.62682)" />
    <path
       sodipodi:type="arc"
       style="fill:#ff0000;fill-opacity:1;stroke:none"
       id="path3755-88-9"
       sodipodi:cx="181.18813"
       sodipodi:cy="599.39191"
       sodipodi:rx="10.891089"
       sodipodi:ry="11.386139"
       d="m 192.07922,599.39191 c 0,6.28839 -4.87611,11.38614 -10.89109,11.38614 -6.01499,0 -10.89109,-5.09775 -10.89109,-11.38614 0,-6.28839 4.8761,-11.38614 10.89109,-11.38614 6.01498,0 10.89109,5.09775 10.89109,11.38614 z"
       transform="matrix(0.54150197,0,0,0.54150197,315.55818,608.93375)" />
    <path
       sodipodi:type="arc"
       style="fill:#ff0000;fill-opacity:1;stroke:none"
       id="path3755-23-9"
       sodipodi:cx="181.18813"
       sodipodi:cy="599.39191"
       sodipodi:rx="10.891089"
       sodipodi:ry="11.386139"
       d="m 192.07922,599.39191 c 0,6.28839 -4.87611,11.38614 -10.89109,11.38614 -6.01499,0 -10.89109,-5.09775 -10.89109,-11.38614 0,-6.28839 4.8761,-11.38614 10.89109,-11.38614 6.01498,0 10.89109,5.09775 10.89109,11.38614 z"
       transform="matrix(0.54150197,0,0,0.54150197,261.55818,700.93375)" />
    <path
       sodipodi:type="arc"
       style="fill:#ff0000;fill-opacity:1;stroke:none"
       id="path3755-7-6"
       sodipodi:cx="181.18813"
       sodipodi:cy="599.39191"
       sodipodi:rx="10.891089"
       sodipodi:ry="11.386139"
       d="m 192.07922,599.39191 c 0,6.28839 -4.87611,11.38614 -10.89109,11.38614 -6.01499,0 -10.89109,-5.09775 -10.89109,-11.38614 0,-6.28839 4.8761,-11.38614 10.89109,-11.38614 6.01498,0 10.89109,5.09775 10.89109,11.38614 z"
       transform="matrix(0.54150197,0,0,0.54150197,235.55818,674.93375)" />
    <path
       sodipodi:type="arc"
       style="fill:#ff0000;fill-opacity:1;stroke:none"
       id="path3755-70-8"
       sodipodi:cx="181.18813"
       sodipodi:cy="599.39191"
       sodipodi:rx="10.891089"
       sodipodi:ry="11.386139"
       d="m 192.07922,599.39191 c 0,6.28839 -4.87611,11.38614 -10.89109,11.38614 -6.01499,0 -10.89109,-5.09775 -10.89109,-11.38614 0,-6.28839 4.8761,-11.38614 10.89109,-11.38614 6.01498,0 10.89109,5.09775 10.89109,11.38614 z"
       transform="matrix(0.54150197,0,0,0.54150197,239.55818,652.93375)" />
    <path
       sodipodi:type="arc"
       style="fill:#ff0000;fill-opacity:1;stroke:none"
       id="path3755-709-6"
       sodipodi:cx="181.18813"
       sodipodi:cy="599.39191"
       sodipodi:rx="10.891089"
       sodipodi:ry="11.386139"
       d="m 192.07922,599.39191 c 0,6.28839 -4.87611,11.38614 -10.89109,11.38614 -6.01499,0 -10.89109,-5.09775 -10.89109,-11.38614 0,-6.28839 4.8761,-11.38614 10.89109,-11.38614 6.01498,0 10.89109,5.09775 10.89109,11.38614 z"
       transform="matrix(0.54150197,0,0,0.54150197,271.55818,630.93375)" />
    <path
       sodipodi:type="arc"
       style="fill:#ff0000;fill-opacity:1;stroke:none"
       id="path3755-880-9"
       sodipodi:cx="181.18813"
       sodipodi:cy="599.39191"
       sodipodi:rx="10.891089"
       sodipodi:ry="11.386139"
       d="m 192.07922,599.39191 c 0,6.28839 -4.87611,11.38614 -10.89109,11.38614 -6.01499,0 -10.89109,-5.09775 -10.89109,-11.38614 0,-6.28839 4.8761,-11.38614 10.89109,-11.38614 6.01498,0 10.89109,5.09775 10.89109,11.38614 z"
       transform="matrix(0.54150197,0,0,0.54150197,259.55818,652.93375)" />
    <path
       sodipodi:type="arc"
       style="fill:#ff0000;fill-opacity:1;stroke:none"
       id="path3755-300-1"
       sodipodi:cx="181.18813"
       sodipodi:cy="599.39191"
       sodipodi:rx="10.891089"
       sodipodi:ry="11.386139"
       d="m 192.07922,599.39191 c 0,6.28839 -4.87611,11.38614 -10.89109,11.38614 -6.01499,0 -10.89109,-5.09775 -10.89109,-11.38614 0,-6.28839 4.8761,-11.38614 10.89109,-11.38614 6.01498,0 10.89109,5.09775 10.89109,11.38614 z"
       transform="matrix(0.54150197,0,0,0.54150197,219.55818,666.93375)" />
    <path
       sodipodi:type="arc"
       style="fill:#ff0000;fill-opacity:1;stroke:none"
       id="path3755-0-3"
       sodipodi:cx="181.18813"
       sodipodi:cy="599.39191"
       sodipodi:rx="10.891089"
       sodipodi:ry="11.386139"
       d="m 192.07922,599.39191 c 0,6.28839 -4.87611,11.38614 -10.89109,11.38614 -6.01499,0 -10.89109,-5.09775 -10.89109,-11.38614 0,-6.28839 4.8761,-11.38614 10.89109,-11.38614 6.01498,0 10.89109,5.09775 10.89109,11.38614 z"
       transform="matrix(0.54150197,0,0,0.54150197,336.37006,676.57731)" />
    <path
       sodipodi:type="arc"
       style="fill:#ff0000;fill-opacity:1;stroke:none"
       id="path3755-19-3"
       sodipodi:cx="181.18813"
       sodipodi:cy="599.39191"
       sodipodi:rx="10.891089"
       sodipodi:ry="11.386139"
       d="m 192.07922,599.39191 c 0,6.28839 -4.87611,11.38614 -10.89109,11.38614 -6.01499,0 -10.89109,-5.09775 -10.89109,-11.38614 0,-6.28839 4.8761,-11.38614 10.89109,-11.38614 6.01498,0 10.89109,5.09775 10.89109,11.38614 z"
       transform="matrix(0.54150197,0,0,0.54150197,365.14234,635.98325)" />
    <path
       sodipodi:type="arc"
       style="fill:#ff0000;fill-opacity:1;stroke:none"
       id="path3755-24-3"
       sodipodi:cx="181.18813"
       sodipodi:cy="599.39191"
       sodipodi:rx="10.891089"
       sodipodi:ry="11.386139"
       d="m 192.07922,599.39191 c 0,6.28839 -4.87611,11.38614 -10.89109,11.38614 -6.01499,0 -10.89109,-5.09775 -10.89109,-11.38614 0,-6.28839 4.8761,-11.38614 10.89109,-11.38614 6.01498,0 10.89109,5.09775 10.89109,11.38614 z"
       transform="matrix(0.54150197,0,0,0.54150197,457.22155,667.03276)" />
    <path
       sodipodi:type="arc"
       style="fill:#0000ff;fill-opacity:1;stroke:none"
       id="path3755-8-9-2"
       sodipodi:cx="181.18813"
       sodipodi:cy="599.39191"
       sodipodi:rx="10.891089"
       sodipodi:ry="11.386139"
       d="m 192.07922,599.39191 c 0,6.28839 -4.87611,11.38614 -10.89109,11.38614 -6.01499,0 -10.89109,-5.09775 -10.89109,-11.38614 0,-6.28839 4.8761,-11.38614 10.89109,-11.38614 6.01498,0 10.89109,5.09775 10.89109,11.38614 z"
       transform="matrix(0.54150197,0,0,0.54150197,337.49877,619.44861)" />
    <path
       sodipodi:type="arc"
       style="fill:#0000ff;fill-opacity:1;stroke:none"
       id="path3755-8-9-6-2"
       sodipodi:cx="181.18813"
       sodipodi:cy="599.39191"
       sodipodi:rx="10.891089"
       sodipodi:ry="11.386139"
       d="m 192.07922,599.39191 c 0,6.28839 -4.87611,11.38614 -10.89109,11.38614 -6.01499,0 -10.89109,-5.09775 -10.89109,-11.38614 0,-6.28839 4.8761,-11.38614 10.89109,-11.38614 6.01498,0 10.89109,5.09775 10.89109,11.38614 z"
       transform="matrix(0.54150197,0,0,0.54150197,294.05323,596.49812)" />
    <path
       sodipodi:type="arc"
       style="fill:#0000ff;fill-opacity:1;stroke:none"
       id="path3755-8-9-7-4"
       sodipodi:cx="181.18813"
       sodipodi:cy="599.39191"
       sodipodi:rx="10.891089"
       sodipodi:ry="11.386139"
       d="m 192.07922,599.39191 c 0,6.28839 -4.87611,11.38614 -10.89109,11.38614 -6.01499,0 -10.89109,-5.09775 -10.89109,-11.38614 0,-6.28839 4.8761,-11.38614 10.89109,-11.38614 6.01498,0 10.89109,5.09775 10.89109,11.38614 z"
       transform="matrix(0.54150197,0,0,0.54150197,381.45917,582.47832)" />
    <path
       sodipodi:type="arc"
       style="fill:#0000ff;fill-opacity:1;stroke:none"
       id="path3755-8-9-1-3"
       sodipodi:cx="181.18813"
       sodipodi:cy="599.39191"
       sodipodi:rx="10.891089"
       sodipodi:ry="11.386139"
       d="m 192.07922,599.39191 c 0,6.28839 -4.87611,11.38614 -10.89109,11.38614 -6.01499,0 -10.89109,-5.09775 -10.89109,-11.38614 0,-6.28839 4.8761,-11.38614 10.89109,-11.38614 6.01498,0 10.89109,5.09775 10.89109,11.38614 z"
       transform="matrix(0.54150197,0,0,0.54150197,453.45917,602.47832)" />
    <path
       sodipodi:type="arc"
       style="fill:#0000ff;fill-opacity:1;stroke:none"
       id="path3755-8-9-10-1"
       sodipodi:cx="181.18813"
       sodipodi:cy="599.39191"
       sodipodi:rx="10.891089"
       sodipodi:ry="11.386139"
       d="m 192.07922,599.39191 c 0,6.28839 -4.87611,11.38614 -10.89109,11.38614 -6.01499,0 -10.89109,-5.09775 -10.89109,-11.38614 0,-6.28839 4.8761,-11.38614 10.89109,-11.38614 6.01498,0 10.89109,5.09775 10.89109,11.38614 z"
       transform="matrix(0.54150197,0,0,0.54150197,226.01363,614.81495)" />
    <path
       sodipodi:type="arc"
       style="fill:#0000ff;fill-opacity:1;stroke:none"
       id="path3755-8-9-71-9"
       sodipodi:cx="181.18813"
       sodipodi:cy="599.39191"
       sodipodi:rx="10.891089"
       sodipodi:ry="11.386139"
       d="m 192.07922,599.39191 c 0,6.28839 -4.87611,11.38614 -10.89109,11.38614 -6.01499,0 -10.89109,-5.09775 -10.89109,-11.38614 0,-6.28839 4.8761,-11.38614 10.89109,-11.38614 6.01498,0 10.89109,5.09775 10.89109,11.38614 z"
       transform="matrix(0.54150197,0,0,0.54150197,291.16214,643.31)" />
    <path
       sodipodi:type="arc"
       style="fill:#0000ff;fill-opacity:1;stroke:none"
       id="path3755-8-9-0-3"
       sodipodi:cx="181.18813"
       sodipodi:cy="599.39191"
       sodipodi:rx="10.891089"
       sodipodi:ry="11.386139"
       d="m 192.07922,599.39191 c 0,6.28839 -4.87611,11.38614 -10.89109,11.38614 -6.01499,0 -10.89109,-5.09775 -10.89109,-11.38614 0,-6.28839 4.8761,-11.38614 10.89109,-11.38614 6.01498,0 10.89109,5.09775 10.89109,11.38614 z"
       transform="matrix(0.54150197,0,0,0.54150197,302.03343,691.52782)" />
    <path
       sodipodi:type="arc"
       style="fill:#0000ff;fill-opacity:1;stroke:none"
       id="path3755-8-9-5-3"
       sodipodi:cx="181.18813"
       sodipodi:cy="599.39191"
       sodipodi:rx="10.891089"
       sodipodi:ry="11.386139"
       d="m 192.07922,599.39191 c 0,6.28839 -4.87611,11.38614 -10.89109,11.38614 -6.01499,0 -10.89109,-5.09775 -10.89109,-11.38614 0,-6.28839 4.8761,-11.38614 10.89109,-11.38614 6.01498,0 10.89109,5.09775 10.89109,11.38614 z"
       transform="matrix(0.54150197,0,0,0.54150197,395.45917,680.47832)" />
    <path
       sodipodi:type="arc"
       style="fill:#0000ff;fill-opacity:1;stroke:none"
       id="path3755-8-9-08-7"
       sodipodi:cx="181.18813"
       sodipodi:cy="599.39191"
       sodipodi:rx="10.891089"
       sodipodi:ry="11.386139"
       d="m 192.07922,599.39191 c 0,6.28839 -4.87611,11.38614 -10.89109,11.38614 -6.01499,0 -10.89109,-5.09775 -10.89109,-11.38614 0,-6.28839 4.8761,-11.38614 10.89109,-11.38614 6.01498,0 10.89109,5.09775 10.89109,11.38614 z"
       transform="matrix(0.54150197,0,0,0.54150197,451.45917,576.47832)" />
    <path
       sodipodi:type="arc"
       style="fill:#0000ff;fill-opacity:1;stroke:none"
       id="path3755-8-9-9-5"
       sodipodi:cx="181.18813"
       sodipodi:cy="599.39191"
       sodipodi:rx="10.891089"
       sodipodi:ry="11.386139"
       d="m 192.07922,599.39191 c 0,6.28839 -4.87611,11.38614 -10.89109,11.38614 -6.01499,0 -10.89109,-5.09775 -10.89109,-11.38614 0,-6.28839 4.8761,-11.38614 10.89109,-11.38614 6.01498,0 10.89109,5.09775 10.89109,11.38614 z"
       transform="matrix(0.54150197,0,0,0.54150197,423.45917,604.47832)" />
    <path
       sodipodi:type="arc"
       style="fill:#0000ff;fill-opacity:1;stroke:none"
       id="path3755-8-9-55-1"
       sodipodi:cx="181.18813"
       sodipodi:cy="599.39191"
       sodipodi:rx="10.891089"
       sodipodi:ry="11.386139"
       d="m 192.07922,599.39191 c 0,6.28839 -4.87611,11.38614 -10.89109,11.38614 -6.01499,0 -10.89109,-5.09775 -10.89109,-11.38614 0,-6.28839 4.8761,-11.38614 10.89109,-11.38614 6.01498,0 10.89109,5.09775 10.89109,11.38614 z"
       transform="matrix(0.54150197,0,0,0.54150197,411.45917,580.47832)" />
    <path
       sodipodi:type="arc"
       style="fill:#0000ff;fill-opacity:1;stroke:none"
       id="path3755-8-9-95-3"
       sodipodi:cx="181.18813"
       sodipodi:cy="599.39191"
       sodipodi:rx="10.891089"
       sodipodi:ry="11.386139"
       d="m 192.07922,599.39191 c 0,6.28839 -4.87611,11.38614 -10.89109,11.38614 -6.01499,0 -10.89109,-5.09775 -10.89109,-11.38614 0,-6.28839 4.8761,-11.38614 10.89109,-11.38614 6.01498,0 10.89109,5.09775 10.89109,11.38614 z"
       transform="matrix(0.54150197,0,0,0.54150197,359.45917,576.47832)" />
    <path
       sodipodi:type="arc"
       style="fill:#0000ff;fill-opacity:1;stroke:none"
       id="path3755-8-9-3-9"
       sodipodi:cx="181.18813"
       sodipodi:cy="599.39191"
       sodipodi:rx="10.891089"
       sodipodi:ry="11.386139"
       d="m 192.07922,599.39191 c 0,6.28839 -4.87611,11.38614 -10.89109,11.38614 -6.01499,0 -10.89109,-5.09775 -10.89109,-11.38614 0,-6.28839 4.8761,-11.38614 10.89109,-11.38614 6.01498,0 10.89109,5.09775 10.89109,11.38614 z"
       transform="matrix(0.54150197,0,0,0.54150197,381.45917,698.47832)" />
    <path
       sodipodi:type="arc"
       style="fill:#0000ff;fill-opacity:1;stroke:none"
       id="path3755-8-9-16-0"
       sodipodi:cx="181.18813"
       sodipodi:cy="599.39191"
       sodipodi:rx="10.891089"
       sodipodi:ry="11.386139"
       d="m 192.07922,599.39191 c 0,6.28839 -4.87611,11.38614 -10.89109,11.38614 -6.01499,0 -10.89109,-5.09775 -10.89109,-11.38614 0,-6.28839 4.8761,-11.38614 10.89109,-11.38614 6.01498,0 10.89109,5.09775 10.89109,11.38614 z"
       transform="matrix(0.54150197,0,0,0.54150197,441.45917,624.47832)" />
    <path
       sodipodi:type="arc"
       style="fill:#0000ff;fill-opacity:1;stroke:none"
       id="path3755-8-9-31-4"
       sodipodi:cx="181.18813"
       sodipodi:cy="599.39191"
       sodipodi:rx="10.891089"
       sodipodi:ry="11.386139"
       d="m 192.07922,599.39191 c 0,6.28839 -4.87611,11.38614 -10.89109,11.38614 -6.01499,0 -10.89109,-5.09775 -10.89109,-11.38614 0,-6.28839 4.8761,-11.38614 10.89109,-11.38614 6.01498,0 10.89109,5.09775 10.89109,11.38614 z"
       transform="matrix(0.54150197,0,0,0.54150197,357.45917,660.47832)" />
    <path
       sodipodi:type="arc"
       style="fill:#0000ff;fill-opacity:1;stroke:none"
       id="path3755-8-9-97-1"
       sodipodi:cx="181.18813"
       sodipodi:cy="599.39191"
       sodipodi:rx="10.891089"
       sodipodi:ry="11.386139"
       d="m 192.07922,599.39191 c 0,6.28839 -4.87611,11.38614 -10.89109,11.38614 -6.01499,0 -10.89109,-5.09775 -10.89109,-11.38614 0,-6.28839 4.8761,-11.38614 10.89109,-11.38614 6.01498,0 10.89109,5.09775 10.89109,11.38614 z"
       transform="matrix(0.54150197,0,0,0.54150197,401.45917,624.47832)" />
    <path
       sodipodi:type="arc"
       style="fill:#0000ff;fill-opacity:1;stroke:none"
       id="path3755-8-9-19-2"
       sodipodi:cx="181.18813"
       sodipodi:cy="599.39191"
       sodipodi:rx="10.891089"
       sodipodi:ry="11.386139"
       d="m 192.07922,599.39191 c 0,6.28839 -4.87611,11.38614 -10.89109,11.38614 -6.01499,0 -10.89109,-5.09775 -10.89109,-11.38614 0,-6.28839 4.8761,-11.38614 10.89109,-11.38614 6.01498,0 10.89109,5.09775 10.89109,11.38614 z"
       transform="matrix(0.54150197,0,0,0.54150197,415.45917,646.47832)" />
    <path
       sodipodi:type="arc"
       style="fill:#0000ff;fill-opacity:1;stroke:none"
       id="path3755-8-9-72-5"
       sodipodi:cx="181.18813"
       sodipodi:cy="599.39191"
       sodipodi:rx="10.891089"
       sodipodi:ry="11.386139"
       d="m 192.07922,599.39191 c 0,6.28839 -4.87611,11.38614 -10.89109,11.38614 -6.01499,0 -10.89109,-5.09775 -10.89109,-11.38614 0,-6.28839 4.8761,-11.38614 10.89109,-11.38614 6.01498,0 10.89109,5.09775 10.89109,11.38614 z"
       transform="matrix(0.54150197,0,0,0.54150197,441.45917,651.3298)" />
    <path
       sodipodi:type="arc"
       style="fill:#0000ff;fill-opacity:1;stroke:none"
       id="path3755-8-9-01-1"
       sodipodi:cx="181.18813"
       sodipodi:cy="599.39191"
       sodipodi:rx="10.891089"
       sodipodi:ry="11.386139"
       d="m 192.07922,599.39191 c 0,6.28839 -4.87611,11.38614 -10.89109,11.38614 -6.01499,0 -10.89109,-5.09775 -10.89109,-11.38614 0,-6.28839 4.8761,-11.38614 10.89109,-11.38614 6.01498,0 10.89109,5.09775 10.89109,11.38614 z"
       transform="matrix(0.54150197,0,0,0.54150197,449.45917,683.3298)" />
    <path
       sodipodi:type="arc"
       style="fill:#0000ff;fill-opacity:1;stroke:none"
       id="path3755-8-9-8-7"
       sodipodi:cx="181.18813"
       sodipodi:cy="599.39191"
       sodipodi:rx="10.891089"
       sodipodi:ry="11.386139"
       d="m 192.07922,599.39191 c 0,6.28839 -4.87611,11.38614 -10.89109,11.38614 -6.01499,0 -10.89109,-5.09775 -10.89109,-11.38614 0,-6.28839 4.8761,-11.38614 10.89109,-11.38614 6.01498,0 10.89109,5.09775 10.89109,11.38614 z"
       transform="matrix(0.54150197,0,0,0.54150197,423.45917,669.3298)" />
    <path
       sodipodi:type="arc"
       style="fill:#0000ff;fill-opacity:1;stroke:none"
       id="path3755-8-9-8-0-4"
       sodipodi:cx="181.18813"
       sodipodi:cy="599.39191"
       sodipodi:rx="10.891089"
       sodipodi:ry="11.386139"
       d="m 192.07922,599.39191 c 0,6.28839 -4.87611,11.38614 -10.89109,11.38614 -6.01499,0 -10.89109,-5.09775 -10.89109,-11.38614 0,-6.28839 4.8761,-11.38614 10.89109,-11.38614 6.01498,0 10.89109,5.09775 10.89109,11.38614 z"
       transform="matrix(0.54150197,0,0,0.54150197,421.45917,689.3298)" />
  </g>
</svg>
