<?xml version="1.0" encoding="UTF-8" standalone="no"?>
<!-- Created with Inkscape (http://www.inkscape.org/) -->

<svg
   xmlns:dc="http://purl.org/dc/elements/1.1/"
   xmlns:cc="http://creativecommons.org/ns#"
   xmlns:rdf="http://www.w3.org/1999/02/22-rdf-syntax-ns#"
   xmlns:svg="http://www.w3.org/2000/svg"
   xmlns="http://www.w3.org/2000/svg"
   xmlns:sodipodi="http://sodipodi.sourceforge.net/DTD/sodipodi-0.dtd"
   xmlns:inkscape="http://www.inkscape.org/namespaces/inkscape"
   width="291.75"
   height="185.37"
   id="svg4489"
   version="1.1"
   inkscape:version="0.48.4 r9939"
   sodipodi:docname="New document 12">
  <defs
     id="defs4491" />
  <sodipodi:namedview
     id="base"
     pagecolor="#ffffff"
     bordercolor="#666666"
     borderopacity="1.0"
     inkscape:pageopacity="0.0"
     inkscape:pageshadow="2"
     inkscape:zoom="1.979899"
     inkscape:cx="184.28539"
     inkscape:cy="136.6947"
     inkscape:document-units="px"
     inkscape:current-layer="layer1"
     showgrid="false"
     inkscape:window-width="1920"
     inkscape:window-height="1002"
     inkscape:window-x="0"
     inkscape:window-y="34"
     inkscape:window-maximized="1" />
  <metadata
     id="metadata4494">
    <rdf:RDF>
      <cc:Work
         rdf:about="">
        <dc:format>image/svg+xml</dc:format>
        <dc:type
           rdf:resource="http://purl.org/dc/dcmitype/StillImage" />
        <dc:title></dc:title>
      </cc:Work>
    </rdf:RDF>
  </metadata>
  <g
     inkscape:label="Layer 1"
     inkscape:groupmode="layer"
     id="layer1"
     transform="translate(0,-866.99218)">
    <rect
       style="fill:none;stroke:#000000;stroke-width:3;stroke-linecap:square;stroke-linejoin:round;stroke-miterlimit:4;stroke-opacity:1;stroke-dasharray:none"
       id="rect2985-1"
       width="278.7504"
       height="172.27722"
       x="6.5"
       y="873.49542" />
    <path
       sodipodi:type="arc"
       style="fill:#ff0000;fill-opacity:1;stroke:none"
       id="path3755-60"
       sodipodi:cx="181.18813"
       sodipodi:cy="599.39191"
       sodipodi:rx="10.891089"
       sodipodi:ry="11.386139"
       d="m 192.07922,599.39191 c 0,6.28839 -4.87611,11.38614 -10.89109,11.38614 -6.01499,0 -10.89109,-5.09775 -10.89109,-11.38614 0,-6.28839 4.8761,-11.38614 10.89109,-11.38614 6.01498,0 10.89109,5.09775 10.89109,11.38614 z"
       transform="matrix(0.54150197,0,0,0.54150197,-24.330072,561.02979)" />
    <path
       sodipodi:type="arc"
       style="fill:#ff0000;fill-opacity:1;stroke:none"
       id="path3755-1-1"
       sodipodi:cx="181.18813"
       sodipodi:cy="599.39191"
       sodipodi:rx="10.891089"
       sodipodi:ry="11.386139"
       d="m 192.07922,599.39191 c 0,6.28839 -4.87611,11.38614 -10.89109,11.38614 -6.01499,0 -10.89109,-5.09775 -10.89109,-11.38614 0,-6.28839 4.8761,-11.38614 10.89109,-11.38614 6.01498,0 10.89109,5.09775 10.89109,11.38614 z"
       transform="matrix(0.54150197,0,0,0.54150197,-59.336522,562.84436)" />
    <path
       sodipodi:type="arc"
       style="fill:#ff0000;fill-opacity:1;stroke:none"
       id="path3755-9-3"
       sodipodi:cx="181.18813"
       sodipodi:cy="599.39191"
       sodipodi:rx="10.891089"
       sodipodi:ry="11.386139"
       d="m 192.07922,599.39191 c 0,6.28839 -4.87611,11.38614 -10.89109,11.38614 -6.01499,0 -10.89109,-5.09775 -10.89109,-11.38614 0,-6.28839 4.8761,-11.38614 10.89109,-11.38614 6.01498,0 10.89109,5.09775 10.89109,11.38614 z"
       transform="matrix(0.54150197,0,0,0.54150197,-19.336522,598.84436)" />
    <path
       sodipodi:type="arc"
       style="fill:#ff0000;fill-opacity:1;stroke:none"
       id="path3755-93-2"
       sodipodi:cx="181.18813"
       sodipodi:cy="599.39191"
       sodipodi:rx="10.891089"
       sodipodi:ry="11.386139"
       d="m 192.07922,599.39191 c 0,6.28839 -4.87611,11.38614 -10.89109,11.38614 -6.01499,0 -10.89109,-5.09775 -10.89109,-11.38614 0,-6.28839 4.8761,-11.38614 10.89109,-11.38614 6.01498,0 10.89109,5.09775 10.89109,11.38614 z"
       transform="matrix(0.54150197,0,0,0.54150197,-5.3365216,568.84436)" />
    <path
       sodipodi:type="arc"
       style="fill:#ff0000;fill-opacity:1;stroke:none"
       id="path3755-8-3"
       sodipodi:cx="181.18813"
       sodipodi:cy="599.39191"
       sodipodi:rx="10.891089"
       sodipodi:ry="11.386139"
       d="m 192.07922,599.39191 c 0,6.28839 -4.87611,11.38614 -10.89109,11.38614 -6.01499,0 -10.89109,-5.09775 -10.89109,-11.38614 0,-6.28839 4.8761,-11.38614 10.89109,-11.38614 6.01498,0 10.89109,5.09775 10.89109,11.38614 z"
       transform="matrix(0.54150197,0,0,0.54150197,18.663478,582.84436)" />
    <path
       sodipodi:type="arc"
       style="fill:#ff0000;fill-opacity:1;stroke:none"
       id="path3755-2-8"
       sodipodi:cx="181.18813"
       sodipodi:cy="599.39191"
       sodipodi:rx="10.891089"
       sodipodi:ry="11.386139"
       d="m 192.07922,599.39191 c 0,6.28839 -4.87611,11.38614 -10.89109,11.38614 -6.01499,0 -10.89109,-5.09775 -10.89109,-11.38614 0,-6.28839 4.8761,-11.38614 10.89109,-11.38614 6.01498,0 10.89109,5.09775 10.89109,11.38614 z"
       transform="matrix(0.54150197,0,0,0.54150197,-45.336522,618.84436)" />
    <path
       sodipodi:type="arc"
       style="fill:#ff0000;fill-opacity:1;stroke:none"
       id="path3755-10-7"
       sodipodi:cx="181.18813"
       sodipodi:cy="599.39191"
       sodipodi:rx="10.891089"
       sodipodi:ry="11.386139"
       d="m 192.07922,599.39191 c 0,6.28839 -4.87611,11.38614 -10.89109,11.38614 -6.01499,0 -10.89109,-5.09775 -10.89109,-11.38614 0,-6.28839 4.8761,-11.38614 10.89109,-11.38614 6.01498,0 10.89109,5.09775 10.89109,11.38614 z"
       transform="matrix(0.54150197,0,0,0.54150197,-41.336522,584.84436)" />
    <path
       sodipodi:type="arc"
       style="fill:#ff0000;fill-opacity:1;stroke:none"
       id="path3755-4-82"
       sodipodi:cx="181.18813"
       sodipodi:cy="599.39191"
       sodipodi:rx="10.891089"
       sodipodi:ry="11.386139"
       d="m 192.07922,599.39191 c 0,6.28839 -4.87611,11.38614 -10.89109,11.38614 -6.01499,0 -10.89109,-5.09775 -10.89109,-11.38614 0,-6.28839 4.8761,-11.38614 10.89109,-11.38614 6.01498,0 10.89109,5.09775 10.89109,11.38614 z"
       transform="matrix(0.54150197,0,0,0.54150197,-71.336522,592.84436)" />
    <path
       sodipodi:type="arc"
       style="fill:#ff0000;fill-opacity:1;stroke:none"
       id="path3755-3-9"
       sodipodi:cx="181.18813"
       sodipodi:cy="599.39191"
       sodipodi:rx="10.891089"
       sodipodi:ry="11.386139"
       d="m 192.07922,599.39191 c 0,6.28839 -4.87611,11.38614 -10.89109,11.38614 -6.01499,0 -10.89109,-5.09775 -10.89109,-11.38614 0,-6.28839 4.8761,-11.38614 10.89109,-11.38614 6.01498,0 10.89109,5.09775 10.89109,11.38614 z"
       transform="matrix(0.54150197,0,0,0.54150197,-65.336522,634.84436)" />
    <path
       sodipodi:type="arc"
       style="fill:#ff0000;fill-opacity:1;stroke:none"
       id="path3755-30-4"
       sodipodi:cx="181.18813"
       sodipodi:cy="599.39191"
       sodipodi:rx="10.891089"
       sodipodi:ry="11.386139"
       d="m 192.07922,599.39191 c 0,6.28839 -4.87611,11.38614 -10.89109,11.38614 -6.01499,0 -10.89109,-5.09775 -10.89109,-11.38614 0,-6.28839 4.8761,-11.38614 10.89109,-11.38614 6.01498,0 10.89109,5.09775 10.89109,11.38614 z"
       transform="matrix(0.54150197,0,0,0.54150197,2.6634784,678.84436)" />
    <path
       sodipodi:type="arc"
       style="fill:#ff0000;fill-opacity:1;stroke:none"
       id="path3755-88-5"
       sodipodi:cx="181.18813"
       sodipodi:cy="599.39191"
       sodipodi:rx="10.891089"
       sodipodi:ry="11.386139"
       d="m 192.07922,599.39191 c 0,6.28839 -4.87611,11.38614 -10.89109,11.38614 -6.01499,0 -10.89109,-5.09775 -10.89109,-11.38614 0,-6.28839 4.8761,-11.38614 10.89109,-11.38614 6.01498,0 10.89109,5.09775 10.89109,11.38614 z"
       transform="matrix(0.54150197,0,0,0.54150197,24.663478,608.84436)" />
    <path
       sodipodi:type="arc"
       style="fill:#ff0000;fill-opacity:1;stroke:none"
       id="path3755-23-0"
       sodipodi:cx="181.18813"
       sodipodi:cy="599.39191"
       sodipodi:rx="10.891089"
       sodipodi:ry="11.386139"
       d="m 192.07922,599.39191 c 0,6.28839 -4.87611,11.38614 -10.89109,11.38614 -6.01499,0 -10.89109,-5.09775 -10.89109,-11.38614 0,-6.28839 4.8761,-11.38614 10.89109,-11.38614 6.01498,0 10.89109,5.09775 10.89109,11.38614 z"
       transform="matrix(0.54150197,0,0,0.54150197,-29.336522,696.84436)" />
    <path
       sodipodi:type="arc"
       style="fill:#ff0000;fill-opacity:1;stroke:none"
       id="path3755-7-3"
       sodipodi:cx="181.18813"
       sodipodi:cy="599.39191"
       sodipodi:rx="10.891089"
       sodipodi:ry="11.386139"
       d="m 192.07922,599.39191 c 0,6.28839 -4.87611,11.38614 -10.89109,11.38614 -6.01499,0 -10.89109,-5.09775 -10.89109,-11.38614 0,-6.28839 4.8761,-11.38614 10.89109,-11.38614 6.01498,0 10.89109,5.09775 10.89109,11.38614 z"
       transform="matrix(0.54150197,0,0,0.54150197,-55.336522,674.84436)" />
    <path
       sodipodi:type="arc"
       style="fill:#ff0000;fill-opacity:1;stroke:none"
       id="path3755-70-83"
       sodipodi:cx="181.18813"
       sodipodi:cy="599.39191"
       sodipodi:rx="10.891089"
       sodipodi:ry="11.386139"
       d="m 192.07922,599.39191 c 0,6.28839 -4.87611,11.38614 -10.89109,11.38614 -6.01499,0 -10.89109,-5.09775 -10.89109,-11.38614 0,-6.28839 4.8761,-11.38614 10.89109,-11.38614 6.01498,0 10.89109,5.09775 10.89109,11.38614 z"
       transform="matrix(0.54150197,0,0,0.54150197,-73.336522,652.84436)" />
    <path
       sodipodi:type="arc"
       style="fill:#ff0000;fill-opacity:1;stroke:none"
       id="path3755-709-1"
       sodipodi:cx="181.18813"
       sodipodi:cy="599.39191"
       sodipodi:rx="10.891089"
       sodipodi:ry="11.386139"
       d="m 192.07922,599.39191 c 0,6.28839 -4.87611,11.38614 -10.89109,11.38614 -6.01499,0 -10.89109,-5.09775 -10.89109,-11.38614 0,-6.28839 4.8761,-11.38614 10.89109,-11.38614 6.01498,0 10.89109,5.09775 10.89109,11.38614 z"
       transform="matrix(0.54150197,0,0,0.54150197,-19.336522,630.84436)" />
    <path
       sodipodi:type="arc"
       style="fill:#ff0000;fill-opacity:1;stroke:none"
       id="path3755-880-6"
       sodipodi:cx="181.18813"
       sodipodi:cy="599.39191"
       sodipodi:rx="10.891089"
       sodipodi:ry="11.386139"
       d="m 192.07922,599.39191 c 0,6.28839 -4.87611,11.38614 -10.89109,11.38614 -6.01499,0 -10.89109,-5.09775 -10.89109,-11.38614 0,-6.28839 4.8761,-11.38614 10.89109,-11.38614 6.01498,0 10.89109,5.09775 10.89109,11.38614 z"
       transform="matrix(0.54150197,0,0,0.54150197,-31.336522,652.84436)" />
    <path
       sodipodi:type="arc"
       style="fill:#ff0000;fill-opacity:1;stroke:none"
       id="path3755-300-6"
       sodipodi:cx="181.18813"
       sodipodi:cy="599.39191"
       sodipodi:rx="10.891089"
       sodipodi:ry="11.386139"
       d="m 192.07922,599.39191 c 0,6.28839 -4.87611,11.38614 -10.89109,11.38614 -6.01499,0 -10.89109,-5.09775 -10.89109,-11.38614 0,-6.28839 4.8761,-11.38614 10.89109,-11.38614 6.01498,0 10.89109,5.09775 10.89109,11.38614 z"
       transform="matrix(0.54150197,0,0,0.54150197,-71.336522,690.84436)" />
    <path
       sodipodi:type="arc"
       style="fill:#ff0000;fill-opacity:1;stroke:none"
       id="path3755-0-6"
       sodipodi:cx="181.18813"
       sodipodi:cy="599.39191"
       sodipodi:rx="10.891089"
       sodipodi:ry="11.386139"
       d="m 192.07922,599.39191 c 0,6.28839 -4.87611,11.38614 -10.89109,11.38614 -6.01499,0 -10.89109,-5.09775 -10.89109,-11.38614 0,-6.28839 4.8761,-11.38614 10.89109,-11.38614 6.01498,0 10.89109,5.09775 10.89109,11.38614 z"
       transform="matrix(0.54150197,0,0,0.54150197,2.6634784,614.84436)" />
    <path
       sodipodi:type="arc"
       style="fill:#ff0000;fill-opacity:1;stroke:none"
       id="path3755-19-7"
       sodipodi:cx="181.18813"
       sodipodi:cy="599.39191"
       sodipodi:rx="10.891089"
       sodipodi:ry="11.386139"
       d="m 192.07922,599.39191 c 0,6.28839 -4.87611,11.38614 -10.89109,11.38614 -6.01499,0 -10.89109,-5.09775 -10.89109,-11.38614 0,-6.28839 4.8761,-11.38614 10.89109,-11.38614 6.01498,0 10.89109,5.09775 10.89109,11.38614 z"
       transform="matrix(0.54150197,0,0,0.54150197,18.311308,645.7451)" />
    <path
       sodipodi:type="arc"
       style="fill:#ff0000;fill-opacity:1;stroke:none"
       id="path3755-24-6"
       sodipodi:cx="181.18813"
       sodipodi:cy="599.39191"
       sodipodi:rx="10.891089"
       sodipodi:ry="11.386139"
       d="m 192.07922,599.39191 c 0,6.28839 -4.87611,11.38614 -10.89109,11.38614 -6.01499,0 -10.89109,-5.09775 -10.89109,-11.38614 0,-6.28839 4.8761,-11.38614 10.89109,-11.38614 6.01498,0 10.89109,5.09775 10.89109,11.38614 z"
       transform="matrix(0.54150197,0,0,0.54150197,32.663478,676.84436)" />
    <path
       sodipodi:type="arc"
       style="fill:#0000ff;fill-opacity:1;stroke:none"
       id="path3755-8-9-089"
       sodipodi:cx="181.18813"
       sodipodi:cy="599.39191"
       sodipodi:rx="10.891089"
       sodipodi:ry="11.386139"
       d="m 192.07922,599.39191 c 0,6.28839 -4.87611,11.38614 -10.89109,11.38614 -6.01499,0 -10.89109,-5.09775 -10.89109,-11.38614 0,-6.28839 4.8761,-11.38614 10.89109,-11.38614 6.01498,0 10.89109,5.09775 10.89109,11.38614 z"
       transform="matrix(0.54150197,0,0,0.54150197,86.604068,605.35922)" />
    <path
       sodipodi:type="arc"
       style="fill:#0000ff;fill-opacity:1;stroke:none"
       id="path3755-8-9-6-5"
       sodipodi:cx="181.18813"
       sodipodi:cy="599.39191"
       sodipodi:rx="10.891089"
       sodipodi:ry="11.386139"
       d="m 192.07922,599.39191 c 0,6.28839 -4.87611,11.38614 -10.89109,11.38614 -6.01499,0 -10.89109,-5.09775 -10.89109,-11.38614 0,-6.28839 4.8761,-11.38614 10.89109,-11.38614 6.01498,0 10.89109,5.09775 10.89109,11.38614 z"
       transform="matrix(0.54150197,0,0,0.54150197,62.564468,598.38892)" />
    <path
       sodipodi:type="arc"
       style="fill:#0000ff;fill-opacity:1;stroke:none"
       id="path3755-8-9-7-2"
       sodipodi:cx="181.18813"
       sodipodi:cy="599.39191"
       sodipodi:rx="10.891089"
       sodipodi:ry="11.386139"
       d="m 192.07922,599.39191 c 0,6.28839 -4.87611,11.38614 -10.89109,11.38614 -6.01499,0 -10.89109,-5.09775 -10.89109,-11.38614 0,-6.28839 4.8761,-11.38614 10.89109,-11.38614 6.01498,0 10.89109,5.09775 10.89109,11.38614 z"
       transform="matrix(0.54150197,0,0,0.54150197,90.564468,582.38892)" />
    <path
       sodipodi:type="arc"
       style="fill:#0000ff;fill-opacity:1;stroke:none"
       id="path3755-8-9-1-8"
       sodipodi:cx="181.18813"
       sodipodi:cy="599.39191"
       sodipodi:rx="10.891089"
       sodipodi:ry="11.386139"
       d="m 192.07922,599.39191 c 0,6.28839 -4.87611,11.38614 -10.89109,11.38614 -6.01499,0 -10.89109,-5.09775 -10.89109,-11.38614 0,-6.28839 4.8761,-11.38614 10.89109,-11.38614 6.01498,0 10.89109,5.09775 10.89109,11.38614 z"
       transform="matrix(0.54150197,0,0,0.54150197,162.56447,602.38892)" />
    <path
       sodipodi:type="arc"
       style="fill:#0000ff;fill-opacity:1;stroke:none"
       id="path3755-8-9-10-13"
       sodipodi:cx="181.18813"
       sodipodi:cy="599.39191"
       sodipodi:rx="10.891089"
       sodipodi:ry="11.386139"
       d="m 192.07922,599.39191 c 0,6.28839 -4.87611,11.38614 -10.89109,11.38614 -6.01499,0 -10.89109,-5.09775 -10.89109,-11.38614 0,-6.28839 4.8761,-11.38614 10.89109,-11.38614 6.01498,0 10.89109,5.09775 10.89109,11.38614 z"
       transform="matrix(0.54150197,0,0,0.54150197,90.564468,648.38892)" />
    <path
       sodipodi:type="arc"
       style="fill:#0000ff;fill-opacity:1;stroke:none"
       id="path3755-8-9-71-4"
       sodipodi:cx="181.18813"
       sodipodi:cy="599.39191"
       sodipodi:rx="10.891089"
       sodipodi:ry="11.386139"
       d="m 192.07922,599.39191 c 0,6.28839 -4.87611,11.38614 -10.89109,11.38614 -6.01499,0 -10.89109,-5.09775 -10.89109,-11.38614 0,-6.28839 4.8761,-11.38614 10.89109,-11.38614 6.01498,0 10.89109,5.09775 10.89109,11.38614 z"
       transform="matrix(0.54150197,0,0,0.54150197,70.564468,626.38892)" />
    <path
       sodipodi:type="arc"
       style="fill:#0000ff;fill-opacity:1;stroke:none"
       id="path3755-8-9-0-4"
       sodipodi:cx="181.18813"
       sodipodi:cy="599.39191"
       sodipodi:rx="10.891089"
       sodipodi:ry="11.386139"
       d="m 192.07922,599.39191 c 0,6.28839 -4.87611,11.38614 -10.89109,11.38614 -6.01499,0 -10.89109,-5.09775 -10.89109,-11.38614 0,-6.28839 4.8761,-11.38614 10.89109,-11.38614 6.01498,0 10.89109,5.09775 10.89109,11.38614 z"
       transform="matrix(0.54150197,0,0,0.54150197,66.564468,692.38892)" />
    <path
       sodipodi:type="arc"
       style="fill:#0000ff;fill-opacity:1;stroke:none"
       id="path3755-8-9-5-6"
       sodipodi:cx="181.18813"
       sodipodi:cy="599.39191"
       sodipodi:rx="10.891089"
       sodipodi:ry="11.386139"
       d="m 192.07922,599.39191 c 0,6.28839 -4.87611,11.38614 -10.89109,11.38614 -6.01499,0 -10.89109,-5.09775 -10.89109,-11.38614 0,-6.28839 4.8761,-11.38614 10.89109,-11.38614 6.01498,0 10.89109,5.09775 10.89109,11.38614 z"
       transform="matrix(0.54150197,0,0,0.54150197,104.56447,680.38892)" />
    <path
       sodipodi:type="arc"
       style="fill:#0000ff;fill-opacity:1;stroke:none"
       id="path3755-8-9-08-9"
       sodipodi:cx="181.18813"
       sodipodi:cy="599.39191"
       sodipodi:rx="10.891089"
       sodipodi:ry="11.386139"
       d="m 192.07922,599.39191 c 0,6.28839 -4.87611,11.38614 -10.89109,11.38614 -6.01499,0 -10.89109,-5.09775 -10.89109,-11.38614 0,-6.28839 4.8761,-11.38614 10.89109,-11.38614 6.01498,0 10.89109,5.09775 10.89109,11.38614 z"
       transform="matrix(0.54150197,0,0,0.54150197,160.56447,576.38892)" />
    <path
       sodipodi:type="arc"
       style="fill:#0000ff;fill-opacity:1;stroke:none"
       id="path3755-8-9-9-8"
       sodipodi:cx="181.18813"
       sodipodi:cy="599.39191"
       sodipodi:rx="10.891089"
       sodipodi:ry="11.386139"
       d="m 192.07922,599.39191 c 0,6.28839 -4.87611,11.38614 -10.89109,11.38614 -6.01499,0 -10.89109,-5.09775 -10.89109,-11.38614 0,-6.28839 4.8761,-11.38614 10.89109,-11.38614 6.01498,0 10.89109,5.09775 10.89109,11.38614 z"
       transform="matrix(0.54150197,0,0,0.54150197,132.56447,604.38892)" />
    <path
       sodipodi:type="arc"
       style="fill:#0000ff;fill-opacity:1;stroke:none"
       id="path3755-8-9-55-17"
       sodipodi:cx="181.18813"
       sodipodi:cy="599.39191"
       sodipodi:rx="10.891089"
       sodipodi:ry="11.386139"
       d="m 192.07922,599.39191 c 0,6.28839 -4.87611,11.38614 -10.89109,11.38614 -6.01499,0 -10.89109,-5.09775 -10.89109,-11.38614 0,-6.28839 4.8761,-11.38614 10.89109,-11.38614 6.01498,0 10.89109,5.09775 10.89109,11.38614 z"
       transform="matrix(0.54150197,0,0,0.54150197,120.56447,580.38892)" />
    <path
       sodipodi:type="arc"
       style="fill:#0000ff;fill-opacity:1;stroke:none"
       id="path3755-8-9-95-5"
       sodipodi:cx="181.18813"
       sodipodi:cy="599.39191"
       sodipodi:rx="10.891089"
       sodipodi:ry="11.386139"
       d="m 192.07922,599.39191 c 0,6.28839 -4.87611,11.38614 -10.89109,11.38614 -6.01499,0 -10.89109,-5.09775 -10.89109,-11.38614 0,-6.28839 4.8761,-11.38614 10.89109,-11.38614 6.01498,0 10.89109,5.09775 10.89109,11.38614 z"
       transform="matrix(0.54150197,0,0,0.54150197,68.564468,576.38892)" />
    <path
       sodipodi:type="arc"
       style="fill:#0000ff;fill-opacity:1;stroke:none"
       id="path3755-8-9-3-91"
       sodipodi:cx="181.18813"
       sodipodi:cy="599.39191"
       sodipodi:rx="10.891089"
       sodipodi:ry="11.386139"
       d="m 192.07922,599.39191 c 0,6.28839 -4.87611,11.38614 -10.89109,11.38614 -6.01499,0 -10.89109,-5.09775 -10.89109,-11.38614 0,-6.28839 4.8761,-11.38614 10.89109,-11.38614 6.01498,0 10.89109,5.09775 10.89109,11.38614 z"
       transform="matrix(0.54150197,0,0,0.54150197,90.564468,698.38892)" />
    <path
       sodipodi:type="arc"
       style="fill:#0000ff;fill-opacity:1;stroke:none"
       id="path3755-8-9-16-6"
       sodipodi:cx="181.18813"
       sodipodi:cy="599.39191"
       sodipodi:rx="10.891089"
       sodipodi:ry="11.386139"
       d="m 192.07922,599.39191 c 0,6.28839 -4.87611,11.38614 -10.89109,11.38614 -6.01499,0 -10.89109,-5.09775 -10.89109,-11.38614 0,-6.28839 4.8761,-11.38614 10.89109,-11.38614 6.01498,0 10.89109,5.09775 10.89109,11.38614 z"
       transform="matrix(0.54150197,0,0,0.54150197,150.56447,624.38892)" />
    <path
       sodipodi:type="arc"
       style="fill:#0000ff;fill-opacity:1;stroke:none"
       id="path3755-8-9-31-46"
       sodipodi:cx="181.18813"
       sodipodi:cy="599.39191"
       sodipodi:rx="10.891089"
       sodipodi:ry="11.386139"
       d="m 192.07922,599.39191 c 0,6.28839 -4.87611,11.38614 -10.89109,11.38614 -6.01499,0 -10.89109,-5.09775 -10.89109,-11.38614 0,-6.28839 4.8761,-11.38614 10.89109,-11.38614 6.01498,0 10.89109,5.09775 10.89109,11.38614 z"
       transform="matrix(0.54150197,0,0,0.54150197,66.564468,660.38892)" />
    <path
       sodipodi:type="arc"
       style="fill:#0000ff;fill-opacity:1;stroke:none"
       id="path3755-8-9-97-8"
       sodipodi:cx="181.18813"
       sodipodi:cy="599.39191"
       sodipodi:rx="10.891089"
       sodipodi:ry="11.386139"
       d="m 192.07922,599.39191 c 0,6.28839 -4.87611,11.38614 -10.89109,11.38614 -6.01499,0 -10.89109,-5.09775 -10.89109,-11.38614 0,-6.28839 4.8761,-11.38614 10.89109,-11.38614 6.01498,0 10.89109,5.09775 10.89109,11.38614 z"
       transform="matrix(0.54150197,0,0,0.54150197,110.56447,624.38892)" />
    <path
       sodipodi:type="arc"
       style="fill:#0000ff;fill-opacity:1;stroke:none"
       id="path3755-8-9-19-9"
       sodipodi:cx="181.18813"
       sodipodi:cy="599.39191"
       sodipodi:rx="10.891089"
       sodipodi:ry="11.386139"
       d="m 192.07922,599.39191 c 0,6.28839 -4.87611,11.38614 -10.89109,11.38614 -6.01499,0 -10.89109,-5.09775 -10.89109,-11.38614 0,-6.28839 4.8761,-11.38614 10.89109,-11.38614 6.01498,0 10.89109,5.09775 10.89109,11.38614 z"
       transform="matrix(0.54150197,0,0,0.54150197,124.56447,646.38892)" />
    <path
       sodipodi:type="arc"
       style="fill:#0000ff;fill-opacity:1;stroke:none"
       id="path3755-8-9-72-7"
       sodipodi:cx="181.18813"
       sodipodi:cy="599.39191"
       sodipodi:rx="10.891089"
       sodipodi:ry="11.386139"
       d="m 192.07922,599.39191 c 0,6.28839 -4.87611,11.38614 -10.89109,11.38614 -6.01499,0 -10.89109,-5.09775 -10.89109,-11.38614 0,-6.28839 4.8761,-11.38614 10.89109,-11.38614 6.01498,0 10.89109,5.09775 10.89109,11.38614 z"
       transform="matrix(0.54150197,0,0,0.54150197,150.56447,651.2404)" />
    <path
       sodipodi:type="arc"
       style="fill:#0000ff;fill-opacity:1;stroke:none"
       id="path3755-8-9-01-4"
       sodipodi:cx="181.18813"
       sodipodi:cy="599.39191"
       sodipodi:rx="10.891089"
       sodipodi:ry="11.386139"
       d="m 192.07922,599.39191 c 0,6.28839 -4.87611,11.38614 -10.89109,11.38614 -6.01499,0 -10.89109,-5.09775 -10.89109,-11.38614 0,-6.28839 4.8761,-11.38614 10.89109,-11.38614 6.01498,0 10.89109,5.09775 10.89109,11.38614 z"
       transform="matrix(0.54150197,0,0,0.54150197,158.56447,683.2404)" />
    <path
       sodipodi:type="arc"
       style="fill:#0000ff;fill-opacity:1;stroke:none"
       id="path3755-8-9-8-03"
       sodipodi:cx="181.18813"
       sodipodi:cy="599.39191"
       sodipodi:rx="10.891089"
       sodipodi:ry="11.386139"
       d="m 192.07922,599.39191 c 0,6.28839 -4.87611,11.38614 -10.89109,11.38614 -6.01499,0 -10.89109,-5.09775 -10.89109,-11.38614 0,-6.28839 4.8761,-11.38614 10.89109,-11.38614 6.01498,0 10.89109,5.09775 10.89109,11.38614 z"
       transform="matrix(0.54150197,0,0,0.54150197,132.56447,669.2404)" />
    <path
       sodipodi:type="arc"
       style="fill:#0000ff;fill-opacity:1;stroke:none"
       id="path3755-8-9-8-0-0"
       sodipodi:cx="181.18813"
       sodipodi:cy="599.39191"
       sodipodi:rx="10.891089"
       sodipodi:ry="11.386139"
       d="m 192.07922,599.39191 c 0,6.28839 -4.87611,11.38614 -10.89109,11.38614 -6.01499,0 -10.89109,-5.09775 -10.89109,-11.38614 0,-6.28839 4.8761,-11.38614 10.89109,-11.38614 6.01498,0 10.89109,5.09775 10.89109,11.38614 z"
       transform="matrix(0.54150197,0,0,0.54150197,130.56447,689.2404)" />
    <path
       style="fill:none;stroke:#000000;stroke-width:1px;stroke-linecap:butt;stroke-linejoin:miter;stroke-opacity:1"
       d="m 143.83729,874.9863 -0.70011,67.5602 -9.45143,14.00211"
       id="path4431"
       inkscape:connector-curvature="0" />
    <path
       style="fill:none;stroke:#000000;stroke-width:1.00086439px;stroke-linecap:butt;stroke-linejoin:miter;stroke-opacity:1"
       d="m 142.43751,963.5501 0.34919,83.3117"
       id="path4433"
       inkscape:connector-curvature="0" />
  </g>
</svg>
